<?xml version="1.0" standalone="no"?>
<!DOCTYPE svg PUBLIC "-//W3C//DTD SVG 20010904//EN"
 "http://www.w3.org/TR/2001/REC-SVG-20010904/DTD/svg10.dtd">
<svg version="1.0" xmlns="http://www.w3.org/2000/svg"
 width="1120.000000pt" height="1120.000000pt" viewBox="0 0 1120.000000 1120.000000"
 preserveAspectRatio="xMidYMid meet">
<metadata>
Created by potrace 1.14, written by Peter Selinger 2001-2017
</metadata>
<g transform="translate(0.000000,1120.000000) scale(0.100000,-0.100000)"
fill="#000000" stroke="none">
<path d="M10810 9100 c-25 -4 -70 -10 -100 -13 -30 -4 -73 -9 -95 -12 -51 -6
-120 -15 -165 -19 -82 -9 -137 -16 -170 -21 -19 -3 -53 -8 -75 -10 -22 -2 -60
-7 -85 -10 -25 -4 -61 -8 -80 -10 -19 -2 -53 -6 -75 -10 -55 -9 -83 -13 -135
-20 -49 -7 -81 -12 -120 -20 -13 -2 -40 -7 -60 -10 -43 -6 -75 -12 -115 -22
-16 -3 -37 -7 -45 -8 -8 -1 -28 -5 -45 -9 -16 -3 -40 -9 -52 -11 -13 -3 -33
-7 -45 -10 -13 -3 -34 -7 -48 -10 -27 -5 -317 -73 -365 -85 -16 -5 -75 -20
-130 -34 -55 -15 -111 -31 -125 -36 -14 -4 -52 -16 -85 -25 -33 -10 -78 -23
-100 -30 -22 -7 -98 -32 -170 -55 -71 -23 -144 -48 -162 -56 -17 -8 -35 -14
-41 -14 -14 0 -402 -156 -485 -195 -40 -18 -75 -33 -80 -34 -4 0 -35 -15 -70
-33 -34 -18 -64 -33 -67 -33 -39 -5 -649 -354 -658 -377 -2 -4 -8 -8 -12 -8
-15 0 -321 -216 -396 -279 -6 -5 -49 -40 -95 -77 -46 -38 -89 -73 -95 -79 -7
-5 -42 -37 -80 -70 -73 -65 -331 -321 -404 -401 -25 -27 -81 -92 -125 -144
-44 -52 -82 -97 -85 -100 -3 -3 -21 -25 -40 -50 -19 -25 -38 -46 -42 -48 -5
-2 -8 -8 -8 -14 0 -5 -6 -15 -12 -23 -7 -7 -21 -24 -31 -37 -9 -13 -28 -36
-40 -53 -47 -60 -183 -253 -252 -355 -75 -113 -75 -113 -120 -189 -16 -28 -33
-51 -37 -51 -5 0 -8 -4 -8 -9 0 -5 -28 -56 -61 -113 -34 -56 -75 -125 -90
-153 -41 -74 -211 -420 -245 -498 -31 -73 -33 -72 -48 13 -3 14 -14 57 -26 95
-11 39 -22 79 -25 89 -7 32 -46 149 -60 181 -7 17 -25 62 -40 100 -15 39 -42
100 -61 138 -19 37 -31 67 -27 67 5 0 4 4 -2 8 -5 4 -28 41 -49 82 -21 41 -56
104 -78 139 -21 34 -38 67 -38 72 0 5 -4 9 -10 9 -5 0 -10 4 -10 9 0 12 -56
97 -82 125 -10 11 -18 25 -18 32 0 7 -3 14 -8 16 -4 2 -25 28 -47 58 -22 30
-45 60 -51 65 -6 6 -17 19 -25 31 -86 130 -455 495 -660 654 -18 14 -37 30
-43 35 -43 41 -405 295 -421 295 -3 0 -25 13 -48 28 -23 15 -64 39 -92 52 -27
14 -52 27 -55 30 -10 12 -227 113 -314 146 -50 20 -104 42 -121 49 -34 14
-152 56 -169 59 -6 2 -42 13 -81 25 -66 22 -191 56 -244 67 -14 3 -28 7 -32 9
-6 4 -180 44 -264 61 -60 12 -73 14 -100 19 -16 3 -43 8 -60 11 -16 3 -39 7
-50 9 -20 3 -62 10 -132 21 -37 6 -59 9 -138 19 -22 3 -51 7 -65 9 -14 3 -44
7 -67 10 -24 3 -62 9 -85 12 -129 17 -301 27 -343 20 -38 -8 -65 -39 -72 -84
-5 -35 -4 -111 1 -139 3 -12 7 -48 11 -80 3 -32 8 -72 11 -90 3 -17 6 -49 8
-70 2 -21 7 -58 10 -83 4 -25 9 -58 11 -75 2 -16 4 -32 5 -35 2 -3 2 -8 1 -13
-1 -4 4 -28 10 -55 6 -26 13 -58 15 -72 3 -14 11 -50 19 -80 8 -30 16 -66 19
-80 11 -58 99 -358 115 -395 4 -11 14 -38 20 -60 7 -22 16 -49 21 -60 5 -11
30 -74 56 -140 107 -274 264 -580 406 -792 26 -40 48 -75 48 -78 0 -4 6 -12
13 -19 6 -8 18 -22 24 -32 44 -66 127 -180 134 -182 5 -2 9 -8 9 -13 0 -8 14
-27 45 -63 6 -6 37 -45 70 -86 129 -160 308 -349 486 -512 98 -91 107 -98 184
-163 74 -63 81 -68 116 -97 19 -14 44 -35 56 -45 11 -10 31 -25 43 -33 11 -8
62 -45 111 -82 50 -37 143 -102 207 -145 64 -43 120 -82 123 -86 3 -5 8 -8 10
-6 2 1 23 -10 46 -24 130 -82 452 -241 513 -253 3 0 12 -4 20 -7 32 -13 178
-57 225 -67 142 -32 164 -36 280 -46 177 -16 319 -9 387 17 45 18 52 74 21
160 -20 52 -181 376 -244 489 -68 123 -183 315 -191 318 -4 2 -8 8 -8 14 0 5
-13 29 -30 53 -16 24 -30 48 -30 53 0 5 -9 17 -20 27 -11 10 -20 24 -20 32 0
7 -4 13 -10 13 -5 0 -10 5 -10 11 0 6 -13 28 -30 49 -16 21 -30 40 -30 43 0 6
-164 237 -208 292 -4 6 -19 26 -32 45 -13 19 -43 58 -65 86 -22 28 -52 66 -67
85 -14 19 -35 44 -45 56 -10 12 -25 31 -33 41 -39 51 -87 108 -106 127 -11 11
-25 28 -30 37 -5 8 -34 44 -65 79 -31 35 -78 89 -105 119 -26 30 -53 60 -58
66 -6 6 -40 44 -76 83 -36 40 -84 92 -107 116 -46 47 -45 54 4 49 45 -3 49 -7
224 -164 15 -14 65 -59 111 -100 46 -41 178 -169 293 -285 256 -256 376 -387
560 -620 44 -55 83 -101 88 -103 4 -2 7 -10 7 -17 0 -7 4 -15 8 -17 4 -1 23
-25 42 -53 19 -27 40 -54 46 -60 6 -5 21 -27 33 -47 13 -21 27 -38 32 -38 5 0
9 -7 9 -15 0 -8 5 -15 10 -15 6 0 10 -5 10 -11 0 -10 28 -49 65 -91 8 -10 15
-22 15 -26 0 -4 13 -23 30 -42 16 -19 29 -41 30 -47 0 -7 4 -13 8 -13 5 0 15
-12 23 -27 8 -15 20 -34 27 -43 8 -8 34 -44 59 -79 l46 -64 -13 -71 c-12 -70
-14 -80 -26 -141 -3 -16 -7 -41 -9 -55 -1 -14 -5 -43 -9 -65 -3 -22 -9 -65
-12 -95 -3 -30 -7 -68 -9 -85 -23 -197 -24 -574 -1 -900 3 -41 25 -98 48 -125
42 -49 125 -69 187 -44 47 18 64 38 130 145 55 89 321 482 346 512 8 9 12 17
8 17 -3 0 3 10 14 22 18 20 94 129 172 247 13 20 33 48 45 62 12 14 28 36 36
49 8 12 31 44 50 70 19 27 54 75 77 107 23 32 49 67 57 78 41 53 73 94 91 119
11 16 25 33 30 40 6 6 35 42 65 81 59 75 83 104 115 141 11 12 29 35 40 50 11
15 27 35 35 43 9 9 54 61 100 116 47 55 92 107 100 115 16 17 133 149 163 184
132 154 553 574 737 736 41 36 81 72 90 80 20 19 55 48 145 123 91 75 87 73
175 140 41 31 82 63 90 70 8 6 59 44 115 84 55 39 108 78 118 87 9 9 17 13 17
9 0 -5 4 -3 8 2 7 10 80 62 112 80 13 8 13 7 0 -10 -8 -10 -37 -42 -65 -70
-51 -53 -259 -275 -327 -349 -21 -23 -52 -57 -70 -77 -18 -19 -60 -66 -93
-104 -33 -38 -72 -81 -87 -97 -16 -16 -28 -31 -28 -33 0 -2 -12 -17 -27 -33
-27 -28 -82 -91 -139 -162 -27 -33 -52 -62 -99 -116 -21 -25 -26 -31 -149
-184 -42 -52 -88 -110 -103 -129 -16 -19 -52 -66 -82 -105 -29 -39 -63 -83
-75 -98 -66 -84 -195 -263 -328 -453 -53 -77 -101 -145 -106 -150 -5 -6 -11
-15 -13 -21 -2 -5 -43 -68 -90 -139 -47 -72 -105 -161 -130 -200 -24 -38 -47
-72 -51 -73 -5 -2 -8 -8 -8 -14 0 -6 -18 -39 -40 -74 -22 -35 -40 -68 -40 -74
0 -5 -3 -10 -7 -10 -5 0 -13 -10 -19 -23 -6 -12 -49 -87 -95 -167 -46 -80 -93
-163 -104 -185 -11 -22 -23 -41 -27 -43 -5 -2 -8 -8 -8 -12 0 -5 -13 -31 -29
-58 -16 -27 -32 -60 -36 -73 -4 -13 -11 -26 -16 -29 -4 -3 -18 -28 -31 -55
-13 -28 -39 -79 -58 -115 -19 -36 -35 -67 -35 -70 -1 -3 -25 -54 -54 -115 -84
-175 -89 -187 -104 -240 -45 -160 66 -207 488 -208 66 0 165 3 220 8 55 4 109
9 121 10 11 1 24 4 30 7 5 3 17 4 27 3 9 -2 17 1 17 6 0 6 5 7 10 4 6 -3 45 1
88 9 42 9 88 18 101 21 13 2 39 9 57 15 18 6 43 13 56 15 48 9 228 70 343 116
17 7 32 13 35 14 122 43 453 221 730 393 63 40 124 76 135 81 12 5 27 16 34
25 7 9 18 16 24 16 5 0 25 11 43 25 18 14 37 25 43 25 6 0 11 4 11 8 0 5 10
14 23 19 19 9 347 236 381 264 6 5 54 41 106 81 95 71 275 213 296 233 6 5 33
28 60 50 26 22 55 47 64 55 9 8 31 28 50 44 134 110 543 510 680 664 36 41 77
87 92 103 15 17 42 48 60 70 18 23 42 51 52 62 10 12 64 78 118 147 55 69 105
132 111 140 7 8 35 47 62 85 43 61 98 137 123 170 8 11 162 249 197 305 58 94
72 116 78 130 4 8 16 29 26 45 61 94 351 656 351 678 0 3 16 41 35 84 20 43
40 87 45 98 14 31 92 229 95 240 1 6 8 24 15 40 7 17 14 35 15 41 2 9 79 228
93 264 3 8 6 17 7 20 0 3 9 32 19 65 10 33 19 65 21 70 1 6 5 17 8 25 18 48
93 321 113 415 2 11 41 173 51 215 3 14 8 33 10 44 2 10 10 51 19 90 8 39 17
88 19 108 2 20 6 41 9 46 3 4 8 31 12 58 3 27 8 51 9 54 2 3 7 33 10 65 4 33
9 62 10 65 2 3 6 29 10 59 4 30 8 63 11 74 2 10 6 45 10 76 3 31 8 64 9 73 5
26 18 150 19 176 0 12 4 22 9 22 4 0 6 4 3 8 -2 4 -6 39 -7 77 -2 39 -6 75
-10 80 -4 6 -8 15 -8 20 -2 19 -42 65 -69 79 -35 18 -121 25 -182 16z"/>
</g>
</svg>
